HIERARCHY
ROOT Pelvis
{
	OFFSET 0.000000 0.941512 0.000000
	CHANNELS 6 Xposition Yposition Zposition Zrotation Yrotation Xrotation 
	JOINT Pelvis_L_Hip
	{
		OFFSET 0.000000 0.000000 0.000000
		CHANNELS 3 Zrotation Yrotation Xrotation
		JOINT L_Hip
		{
			OFFSET 0.062321 -0.080322 -0.016990
			CHANNELS 3 Zrotation Yrotation Xrotation
			JOINT L_Knee
			{
				OFFSET 0.093051 -0.381305 -0.029784
				CHANNELS 3 Zrotation Yrotation Xrotation
				JOINT L_Ankle
				{
					OFFSET -0.010371 -0.431000 -0.033614
					CHANNELS 3 Zrotation Yrotation Xrotation
					End Site #name: L_Foot
					{
						OFFSET 0.069299 -0.038670 0.119418
					}
				}
			}
		}
	}
	JOINT Pelvis_R_Hip
	{
		OFFSET 0.000000 0.000000 0.000000
		CHANNELS 3 Zrotation Yrotation Xrotation
		JOINT R_Hip
		{
			OFFSET -0.055334 -0.094904 -0.002373
			CHANNELS 3 Zrotation Yrotation Xrotation
			JOINT R_Knee
			{
				OFFSET -0.064207 -0.384370 -0.019592
				CHANNELS 3 Zrotation Yrotation Xrotation
				JOINT R_Ankle
				{
					OFFSET 0.025418 -0.419734 -0.065953
					CHANNELS 3 Zrotation Yrotation Xrotation
					End Site #name: R_Foot
					{
						OFFSET -0.057233 -0.039888 0.132134
					}
				}
			}
		}
	}
	JOINT Pelvis_Spine1
	{
		OFFSET 0.000000 0.000000 0.000000
		CHANNELS 3 Zrotation Yrotation Xrotation
		JOINT Spine1
		{
			OFFSET -0.005562 0.124093 -0.043360
			CHANNELS 3 Zrotation Yrotation Xrotation
			JOINT Spine2
			{
				OFFSET 0.012244 0.139499 0.029894
				CHANNELS 3 Zrotation Yrotation Xrotation
				JOINT Spine3
				{
					OFFSET -0.002556 0.056561 0.009225
					CHANNELS 3 Zrotation Yrotation Xrotation
					JOINT Spine3_Neck
					{
						OFFSET 0.000000 0.000000 0.000000
						CHANNELS 3 Zrotation Yrotation Xrotation
						JOINT Neck
						{
							OFFSET -0.005205 0.217920 -0.024551
							CHANNELS 3 Zrotation Yrotation Xrotation
							End Site #name: Head
							{
								OFFSET 0.002365 0.091850 0.046637
							}
						}
					}
					JOINT Spine3_L_Collar
					{
						OFFSET 0.000000 0.000000 0.000000
						CHANNELS 3 Zrotation Yrotation Xrotation
						JOINT L_Collar
						{
							OFFSET 0.072225 0.116603 -0.009480
							CHANNELS 3 Zrotation Yrotation Xrotation
							JOINT L_Shoulder
							{
								OFFSET 0.115937 -0.058643 -0.021018
								CHANNELS 3 Zrotation Yrotation Xrotation
								JOINT L_Elbow
								{
									OFFSET 0.021994 -0.254722 -0.024492
									CHANNELS 3 Zrotation Yrotation Xrotation
									End Site #name: L_Wrist
									{
										OFFSET 0.048810 -0.240214 0.103329
									}
								}
							}
						}
					}
					JOINT Spine3_R_Collar
					{
						OFFSET 0.000000 0.000000 0.000000
						CHANNELS 3 Zrotation Yrotation Xrotation
						JOINT R_Collar
						{
							OFFSET -0.073372 0.120704 -0.024611
							CHANNELS 3 Zrotation Yrotation Xrotation
							JOINT R_Shoulder
							{
								OFFSET -0.108089 -0.054969 -0.020504
								CHANNELS 3 Zrotation Yrotation Xrotation
								JOINT R_Elbow
								{
									OFFSET -0.033684 -0.260739 0.009889
									CHANNELS 3 Zrotation Yrotation Xrotation
									End Site #name: R_Wrist
									{
										OFFSET -0.067980 -0.232763 0.118463
									}
								}
							}
						}
					}
				}
			}
		}
	}
}
MOTION
Frames: 7
Frame Time: 0.041667
0.000000 0.961789 0.000000 -3.967008 -3.270979 9.451576 0.000000 0.000000 0.000000 -3.038003 -3.209374 -13.119899 7.431878 -1.141982 6.161969 -5.515978 -11.411722 3.199844 0.000000 0.000000 0.000000 6.135323 2.340857 -12.324757 -3.513294 0.516184 -0.290666 7.514882 14.326862 5.990772 0.000000 0.000000 0.000000 6.379567 0.396366 -13.047686 -9.649192 3.468528 13.473203 3.087501 2.360209 -23.471181 0.000000 0.000000 0.000000 2.421706 -2.251705 21.942936 0.000000 0.000000 0.000000 32.313882 5.827308 12.324595 -25.757824 1.078344 -1.643191 -3.129973 1.934903 14.496165 0.000000 0.000000 0.000000 -31.372735 -2.769925 10.135173 32.020918 -0.329254 6.521997 7.755343 -0.335389 11.883603 
0.000014 0.961797 0.000176 -3.985354 -3.201972 9.536299 0.000000 0.000000 0.000000 -3.009470 -3.219983 -13.166502 7.444002 -1.133197 6.041716 -5.615849 -11.425095 3.347670 0.000000 0.000000 0.000000 6.172590 2.357097 -12.392588 -3.534768 0.517396 -0.315008 7.500163 14.180381 6.049773 0.000000 0.000000 0.000000 6.422307 0.395420 -13.077345 -9.725727 3.487261 13.453447 3.109263 2.367255 -23.469612 0.000000 0.000000 0.000000 2.337603 -2.199190 22.004391 0.000000 0.000000 0.000000 32.403140 5.597553 12.156510 -25.800143 1.111488 -1.545185 -3.129164 1.874955 14.216654 0.000000 0.000000 0.000000 -31.512321 -2.554305 9.980081 32.211643 -0.394017 6.681144 7.917350 -0.155786 11.566315 
0.000083 0.961794 0.000283 -3.986464 -3.087661 9.625528 0.000000 0.000000 0.000000 -3.004072 -3.239800 -13.246006 7.460284 -1.128905 5.968937 -5.694863 -11.478386 3.441322 0.000000 0.000000 0.000000 6.173757 2.366500 -12.437899 -3.529504 0.510444 -0.384569 7.457208 14.026301 6.066690 0.000000 0.000000 0.000000 6.415058 0.402436 -13.120820 -9.745684 3.489937 13.443505 3.132337 2.402130 -23.459440 0.000000 0.000000 0.000000 2.288375 -2.180177 22.090158 0.000000 0.000000 0.000000 32.448822 5.479309 12.089059 -25.793788 1.106991 -1.562566 -3.100776 1.811989 13.898466 0.000000 0.000000 0.000000 -31.604404 -2.410135 9.858109 32.249823 -0.478223 6.879419 8.126601 0.081544 11.127590 
0.000260 0.961791 0.000417 -4.007167 -3.002504 9.619508 0.000000 0.000000 0.000000 -3.001328 -3.233035 -13.220158 7.483960 -1.126185 5.902755 -5.742625 -11.512042 3.496457 0.000000 0.000000 0.000000 6.194737 2.357047 -12.392496 -3.527418 0.506492 -0.425825 7.414582 13.908984 6.061971 0.000000 0.000000 0.000000 6.409737 0.412329 -13.179433 -9.681356 3.510599 13.720492 3.132877 2.498653 -23.536447 0.000000 0.000000 0.000000 2.200467 -2.135921 22.126368 0.000000 0.000000 0.000000 32.267763 5.391668 11.977013 -25.604017 1.109072 -1.524617 -3.229979 1.612534 13.146476 0.000000 0.000000 0.000000 -31.519246 -2.129622 9.535737 32.027542 -0.630587 7.243958 8.398627 0.462794 10.374869 
0.000385 0.961779 0.000757 -3.996766 -2.928404 9.599420 0.000000 0.000000 0.000000 -3.029466 -3.218819 -13.161827 7.498667 -1.120848 5.821716 -5.764707 -11.520987 3.523489 0.000000 0.000000 0.000000 6.188510 2.334830 -12.296149 -3.521853 0.497069 -0.520672 7.369684 13.764965 6.068127 0.000000 0.000000 0.000000 6.394627 0.423537 -13.239524 -9.715215 3.554535 13.956665 3.206408 2.666540 -23.623857 0.000000 0.000000 0.000000 2.139009 -2.118116 22.220555 0.000000 0.000000 0.000000 32.161983 5.369557 11.963093 -25.439293 1.161046 -1.337912 -3.443147 1.213218 11.635451 0.000000 0.000000 0.000000 -31.496108 -1.867492 9.244062 31.874601 -0.896574 7.877751 8.598614 1.110683 8.827431 
0.000490 0.961611 0.001214 -3.958554 -2.878083 9.565860 0.000000 0.000000 0.000000 -3.080019 -3.198536 -13.077022 7.494728 -1.112604 5.733249 -5.836038 -11.516962 3.634504 0.000000 0.000000 0.000000 6.139603 2.303671 -12.167986 -3.511285 0.483306 -0.652806 7.350940 13.599689 6.130948 0.000000 0.000000 0.000000 6.348046 0.453056 -13.401221 -9.734122 3.623714 14.390216 3.306899 2.868690 -23.738799 0.000000 0.000000 0.000000 1.988879 -2.029558 22.183013 0.000000 0.000000 0.000000 31.929040 5.445953 11.993582 -25.066238 1.360310 -0.652844 -4.067155 0.133270 7.826246 0.000000 0.000000 0.000000 -31.360906 -1.696246 8.995051 31.368801 -1.438359 9.163579 8.999381 2.892974 4.583469 
0.000631 0.961363 0.001384 -3.940580 -2.796808 9.532508 0.000000 0.000000 0.000000 -3.101764 -3.192323 -13.049597 7.488594 -1.109828 5.712473 -5.978117 -11.604283 3.808887 0.000000 0.000000 0.000000 6.092951 2.283689 -12.087610 -3.466917 0.470386 -0.722748 7.333980 13.444972 6.193140 0.000000 0.000000 0.000000 6.300887 0.506285 -13.724421 -9.681578 3.725151 15.188701 3.458243 3.060140 -23.960205 0.000000 0.000000 0.000000 1.789694 -1.907363 22.189153 0.000000 0.000000 0.000000 31.796116 5.514077 12.054861 -24.832977 1.579531 0.095295 -4.427337 -1.475091 1.768344 0.000000 0.000000 0.000000 -31.385019 -1.659656 8.926583 30.525796 -2.074213 10.731043 9.206323 5.835806 -2.507567 
